<?xml version="1.0" encoding="utf-8"?>
<!-- Generator: Adobe Illustrator 24.2.1, SVG Export Plug-In . SVG Version: 6.00 Build 0)  -->
<svg version="1.1" id="Слой_1" xmlns="http://www.w3.org/2000/svg" xmlns:xlink="http://www.w3.org/1999/xlink" x="0px" y="0px"
	 viewBox="0 0 1000 1000" style="enable-background:new 0 0 1000 1000;" xml:space="preserve">
<style type="text/css">
	.st0{fill:#FFFFFF;stroke:#000000;stroke-width:50;stroke-miterlimit:10;}
</style>
<path class="st0" d="M907.4,707.93c-248.38,80.56-513.27-50.05-591.65-291.72c-40.04-123.45-23.64-251.98,35.06-358.95
	C125.39,150.37,4.57,397.71,79.07,627.41c78.38,241.67,343.27,372.28,591.65,291.72c121.5-39.41,216.52-122.06,272.74-224.5
	C931.72,699.49,919.7,703.94,907.4,707.93z"/>
<polygon class="st0" points="605.92,296.59 536.46,262.73 469.76,301.75 479.84,224.07 422.69,171.49 498.38,157.34 529.76,85.82 
	566.46,154.76 643.01,163.14 590,219.89 "/>
<polygon class="st0" points="869.12,428.54 802.88,498.57 823.02,592.83 735.95,551.48 652.52,599.76 664.95,504.18 593.25,439.75 
	688,422.03 727.11,333.93 773.24,418.57 "/>
</svg>
