<?xml version="1.0" encoding="utf-8"?>
<!-- Generator: Adobe Illustrator 24.2.1, SVG Export Plug-In . SVG Version: 6.00 Build 0)  -->
<svg version="1.1" id="Слой_1" xmlns="http://www.w3.org/2000/svg" xmlns:xlink="http://www.w3.org/1999/xlink" x="0px" y="0px"
	 viewBox="0 0 1000 1000" style="enable-background:new 0 0 1000 1000;" xml:space="preserve">
<style type="text/css">
	.st0{fill:#FFDF35;}
</style>
<path class="st0" d="M677.57,650.85c-136.61,20-263.58-74.53-283.58-211.15c-10.22-69.78,9.46-137.04,49.36-188.82
	C317.63,279.73,233.16,400.85,252.18,530.7c20,136.61,146.96,231.15,283.58,211.15c66.83-9.78,123.58-45.17,161.79-94.76
	C690.99,648.59,684.33,649.85,677.57,650.85z"/>
<polygon class="st0" points="461.34,431.57 451.65,425.19 440.9,429.57 443.97,418.38 436.49,409.5 448.08,408.96 454.21,399.11 
	458.3,409.97 469.57,412.75 460.51,420 "/>
<polygon class="st0" points="538.5,571.03 543.64,581.43 555.12,583.1 546.81,591.2 548.77,602.64 538.5,597.24 528.23,602.64 
	530.19,591.2 521.88,583.1 533.36,581.43 "/>
<polygon class="st0" points="627.5,583.03 632.64,593.43 644.12,595.1 635.81,603.2 637.77,614.64 627.5,609.24 617.23,614.64 
	619.19,603.2 610.88,595.1 622.36,593.43 "/>
<polygon class="st0" points="503.71,479.6 504.74,491.15 514.84,496.86 504.17,501.41 501.86,512.78 494.24,504.03 482.71,505.35 
	488.67,495.4 483.86,484.84 495.16,487.44 "/>
</svg>
